<svg width="1750" height="1260" fill="none" xmlns="http://www.w3.org/2000/svg"><path d="M1050.5 0H1750v1260H0L1050.5 0z" fill="#7C1623"/><path d="M875 1050l175 210H700l175-210zm-350 0l175 210H350l175-210zm-350 0l175 210H0l175-210z" fill="#630607"/><path d="M700 840l175 210H525l175-210zm350 0l175 210H875l175-210z" fill="#CC4133"/><path d="M875 630l175 210H700l175-210z" fill="#630607"/><path d="M350 840l175 210H175l175-210zM1400 0l175 210h-350L1400 0zm-350 420l175 210H875l175-210z" fill="#CC4133"/><path d="M1225 630l175 210h-350l175-210zm0-420l175 210h-350l175-210zM525 630l175 210H350l175-210z" fill="#630607"/><path d="M1400 420l175 210h-350l175-210zM1050 0l175 210H875L1050 0zM700 420l175 210H525l175-210z" fill="#CC4133"/><path d="M1575 210l175 210h-350l175-210zm-700 0l175 210H700l175-210z" fill="#630607"/><path d="M1400 840l175 210h-350l175-210z" fill="#CC4133"/><path d="M875 1050l175-210H700l175 210z" fill="#7C1623"/><path d="M1225 1050l175 210h-350l175-210z" fill="#630607"/><path d="M700 1260l175-210H525l175 210z" fill="#7C1623"/><path d="M1575 630l175 210h-350l175-210zm0 420l175 210h-350l175-210z" fill="#630607"/><path d="M1750 420v210h-175l175-210z" fill="#CC4133"/><path d="M1050 840l175-210H875l175 210z" fill="#7C1623"/><path d="M1750 0v210h-175L1750 0z" fill="#CC4133"/><path d="M1575 210L1750 0h-350l175 210zm-350 420l175-210h-350l175 210zm0 420l175-210h-350l175 210zm-700 0l175-210H350l175 210zm525 210l175-210H875l175 210zm350-840l175-210h-350l175 210zM350 1260l175-210H175l175 210z" fill="#7C1623"/><path d="M1750 840v210h-175l175-210z" fill="#CC4133"/><path d="M1400 1260l175-210h-350l175 210zm0-420l175-210h-350l175 210zm-700 0l175-210H525l175 210zm875-210l175-210h-350l175 210zm-350-420L1400 0h-350l175 210zM875 630l175-210H700l175 210zm875 630v-210h-175l175 210zm-175-210l175-210h-350l175 210zm175-630V210h-175l175 210zm-700 0l175-210H875l175 210zm700 420V630h-175l175 210z" fill="#7C1623"/></svg>