<svg xmlns="http://www.w3.org/2000/svg" viewBox="0 0 369.16 139.17"><defs><style>.cls-1,.cls-2{fill:#cc4133}.cls-3{fill:#7c1623}.cls-2{mix-blend-mode:multiply}</style></defs><g style="isolation:isolate"><g id="_イヤー_2"><g id="_イヤー_1-2"><path class="cls-1" d="M161.29 55.79l-23.3-27.9h46.59l-23.29 27.9zm46.58 0l-23.29-27.9h46.58l-23.29 27.9zm-69.88-27.9L114.7 0h46.59l-23.3 27.89zm93.17 0L207.87 0h46.59l-23.3 27.89zm-46.58 55.79l-23.29-27.89h46.58l-23.29 27.89z"/><path class="cls-3" d="M184.58 27.89l-23.29 27.9h46.58l-23.29-27.9zM207.87 0l-23.29 27.89h46.58L207.87 0zm-46.58 0l-23.3 27.89h46.59L161.29 0zm48.29 100.78h19.02v37.85h-19.02z"/><path class="cls-1" d="M0 100.78h62.58l-31.29 37.85L0 100.78z"/><path class="cls-3" d="M306.33 138.63h62.83l-30.96-29.52-31.87 29.52zM92.72 100.19c-16.26 0-29.49 8.71-29.49 19.47s13.23 19.52 29.49 19.52 29.49-8.71 29.49-19.52-13.23-19.47-29.49-19.47zm76.06.54h-40.44v24.01h40.44c11.6 0 18.63-4.43 18.63-12s-7.03-12-18.63-12z"/><path class="cls-2" d="M128.34 100.73v37.9h60.94l-60.94-37.9z"/><path class="cls-1" transform="rotate(-90 277.015 107.075)" d="M270.72 81.83h12.59v50.49h-12.59z"/><path class="cls-1" transform="rotate(-90 277.01 132.28)" d="M270.72 107.04h12.59v50.49h-12.59z"/><path class="cls-2" transform="rotate(-90 219.095 107.075)" d="M212.8 80.52h12.59v53.1H212.8z"/><path class="cls-1" d="M251.77 114.68h50.49v10h-50.49z"/><path class="cls-2" d="M306.33 100.78h62.83L338.2 130.3l-31.87-29.52z"/><path d="M251.77 100.78h19.12v37.85h-19.12zm-90.48-44.99l-23.3-27.9h46.59l-23.29 27.9zm46.58 0l-23.29-27.9h46.58l-23.29 27.9z" style="mix-blend-mode:multiply" fill="#7c1623"/></g></g></g></svg>