<svg xmlns="http://www.w3.org/2000/svg" viewBox="0 0 210.74 79.45"><path d="M17.86 79.14l17.86-21.61H0l17.86 21.61zm35.07-21.95c-9.28 0-16.84 4.97-16.84 11.11s7.56 11.14 16.84 11.14 16.84-4.97 16.84-11.14-7.56-11.11-16.84-11.11zm43.42 14.02c6.62 0 10.63-2.53 10.63-6.85s-4.01-6.85-10.63-6.85H73.26v21.64h34.79L95.3 71.22h1.05zm23.29-13.68h-9.73v7.19h9.73v14.42h10.86V64.72h9.73v-7.19h-20.59zm91.1 0h-35.87l11.66 10.8-11.66 10.81h35.87l-11.33-10.81 11.33-10.8zm-67.02 0v21.61h10.92v-.03h17.9v-7.19h-17.9v-.75h17.9v-5.71h-17.9v-.74h17.9v-7.19h-28.82zM92.07 31.85l13.3 15.92 9.97-11.94 14.44-17.29L145.26 0h-26.6l-13.29 15.92L92.07 0H65.48l13.29 15.92 13.3 15.93z" fill="#fff"/></svg>