<svg width="1750" height="1260" viewBox="0 0 1750 1260" fill="none" xmlns="http://www.w3.org/2000/svg">
<path d="M1050.5 0H1750V1260H0L1050.5 0Z" fill="#7C1623"/>
<path d="M875 1050L1050 1260H700L875 1050Z" fill="#630607"/>
<path d="M525 1050L700 1260H350L525 1050Z" fill="#630607"/>
<path d="M175 1050L350 1260H0L175 1050Z" fill="#630607"/>
<path d="M700 840L875 1050H525L700 840Z" fill="#CC4133"/>
<path d="M1050 840L1225 1050H875L1050 840Z" fill="#CC4133"/>
<path d="M875 630L1050 840H700L875 630Z" fill="#630607"/>
<path d="M350 840L525 1050H175L350 840Z" fill="#CC4133"/>
<path d="M1400 0L1575 210H1225L1400 0Z" fill="#CC4133"/>
<path d="M1050 420L1225 630H875L1050 420Z" fill="#CC4133"/>
<path d="M1225 630L1400 840H1050L1225 630Z" fill="#630607"/>
<path d="M1225 210L1400 420H1050L1225 210Z" fill="#630607"/>
<path d="M525 630L700 840H350L525 630Z" fill="#630607"/>
<path d="M1400 420L1575 630H1225L1400 420Z" fill="#CC4133"/>
<path d="M1050 0L1225 210H875L1050 0Z" fill="#CC4133"/>
<path d="M700 420L875 630H525L700 420Z" fill="#CC4133"/>
<path d="M1575 210L1750 420H1400L1575 210Z" fill="#630607"/>
<path d="M875 210L1050 420H700L875 210Z" fill="#630607"/>
<path d="M1400 840L1575 1050H1225L1400 840Z" fill="#CC4133"/>
<path d="M875 1050L1050 840H700L875 1050Z" fill="#7C1623"/>
<path d="M1225 1050L1400 1260H1050L1225 1050Z" fill="#630607"/>
<path d="M700 1260L875 1050H525L700 1260Z" fill="#7C1623"/>
<path d="M1575 630L1750 840H1400L1575 630Z" fill="#630607"/>
<path d="M1575 1050L1750 1260H1400L1575 1050Z" fill="#630607"/>
<path d="M1750 420V630H1575L1750 420Z" fill="#CC4133"/>
<path d="M1050 840L1225 630H875L1050 840Z" fill="#7C1623"/>
<path d="M1750 0V210H1575L1750 0Z" fill="#CC4133"/>
<path d="M1575 210L1750 3.57628e-06H1400L1575 210Z" fill="#7C1623"/>
<path d="M1225 630L1400 420H1050L1225 630Z" fill="#7C1623"/>
<path d="M1225 1050L1400 840H1050L1225 1050Z" fill="#7C1623"/>
<path d="M525 1050L700 840H350L525 1050Z" fill="#7C1623"/>
<path d="M1050 1260L1225 1050H875L1050 1260Z" fill="#7C1623"/>
<path d="M1400 420L1575 210H1225L1400 420Z" fill="#7C1623"/>
<path d="M350 1260L525 1050H175L350 1260Z" fill="#7C1623"/>
<path d="M1750 840V1050H1575L1750 840Z" fill="#CC4133"/>
<path d="M1400 1260L1575 1050H1225L1400 1260Z" fill="#7C1623"/>
<path d="M1400 840L1575 630H1225L1400 840Z" fill="#7C1623"/>
<path d="M700 840L875 630H525L700 840Z" fill="#7C1623"/>
<path d="M1575 630L1750 420H1400L1575 630Z" fill="#7C1623"/>
<path d="M1225 210L1400 3.57628e-06H1050L1225 210Z" fill="#7C1623"/>
<path d="M875 630L1050 420H700L875 630Z" fill="#7C1623"/>
<path d="M1750 1260V1050H1575L1750 1260Z" fill="#7C1623"/>
<path d="M1575 1050L1750 840H1400L1575 1050Z" fill="#7C1623"/>
<path d="M1750 420V210H1575L1750 420Z" fill="#7C1623"/>
<path d="M1050 420L1225 210H875L1050 420Z" fill="#7C1623"/>
<path d="M1750 840V630H1575L1750 840Z" fill="#7C1623"/>
</svg>
