<?xml version="1.0" encoding="UTF-8"?><svg id="_イヤー_2" xmlns="http://www.w3.org/2000/svg" viewBox="0 0 210.74 79.45"><defs><style>.cls-1{fill:#fff;}</style></defs><g id="_イヤー_1-2"><g><g><polygon class="cls-1" points="17.86 79.14 35.72 57.53 0 57.53 17.86 79.14"/><path class="cls-1" d="M52.93,57.19c-9.28,0-16.84,4.97-16.84,11.11s7.56,11.14,16.84,11.14,16.84-4.97,16.84-11.14-7.56-11.11-16.84-11.11Z"/><path class="cls-1" d="M96.35,71.21c6.62,0,10.63-2.53,10.63-6.85s-4.01-6.85-10.63-6.85h-23.09v21.64h34.79l-12.75-7.93h1.05Z"/><polygon class="cls-1" points="119.64 57.53 109.91 57.53 109.91 64.72 119.64 64.72 119.64 79.14 130.5 79.14 130.5 64.72 140.23 64.72 140.23 57.53 130.5 57.53 119.64 57.53"/><polygon class="cls-1" points="210.74 57.53 174.87 57.53 186.53 68.33 174.87 79.14 210.74 79.14 199.41 68.33 210.74 57.53"/><polygon class="cls-1" points="143.72 57.53 143.72 64.72 143.72 65.46 143.72 71.17 143.72 71.92 143.72 79.11 143.72 79.14 154.64 79.14 154.64 79.11 172.54 79.11 172.54 71.92 154.64 71.92 154.64 71.17 172.54 71.17 172.54 65.46 154.64 65.46 154.64 64.72 172.54 64.72 172.54 57.53 154.64 57.53 143.72 57.53"/></g><polygon class="cls-1" points="92.07 31.85 105.37 47.77 115.34 35.83 115.34 35.83 129.78 18.54 129.78 18.54 145.26 0 118.66 0 118.66 0 105.37 15.92 92.07 0 65.48 0 78.77 15.92 92.07 31.85"/></g></g></svg>