<?xml version="1.0" encoding="UTF-8"?><svg xmlns="http://www.w3.org/2000/svg" viewBox="0 0 369.16 139.17"><defs><style>.cls-1,.cls-2{fill:#cc4133;}.cls-3,.cls-4{fill:#7c1623;}.cls-4,.cls-2{mix-blend-mode:multiply;}.cls-5{isolation:isolate;}</style></defs><g class="cls-5"><g id="_イヤー_2"><g id="_イヤー_1-2"><g><polygon class="cls-1" points="161.29 55.79 137.99 27.89 184.58 27.89 161.29 55.79"/><polygon class="cls-1" points="207.87 55.79 184.58 27.89 231.16 27.89 207.87 55.79"/><polygon class="cls-1" points="137.99 27.89 114.7 0 161.29 0 137.99 27.89"/><polygon class="cls-1" points="231.16 27.89 207.87 0 254.46 0 231.16 27.89"/><polygon class="cls-1" points="184.58 83.68 161.29 55.79 207.87 55.79 184.58 83.68"/><polygon class="cls-3" points="184.58 27.89 161.29 55.79 207.87 55.79 184.58 27.89"/><polygon class="cls-3" points="207.87 0 184.58 27.89 231.16 27.89 207.87 0"/><polygon class="cls-3" points="161.29 0 137.99 27.89 184.58 27.89 161.29 0"/><rect class="cls-3" x="209.58" y="100.78" width="19.02" height="37.85"/><polygon class="cls-1" points="0 100.78 62.58 100.78 31.29 138.63 0 100.78"/><polygon class="cls-3" points="306.33 138.63 369.16 138.63 338.2 109.11 306.33 138.63"/><path class="cls-3" d="M92.72,100.19c-16.26,0-29.49,8.71-29.49,19.47s13.23,19.52,29.49,19.52,29.49-8.71,29.49-19.52-13.23-19.47-29.49-19.47Z"/><path class="cls-3" d="M168.78,100.73h-40.44v24.01h40.44c11.6,0,18.63-4.43,18.63-12s-7.03-12-18.63-12Z"/><polygon class="cls-2" points="128.34 100.73 128.34 138.63 189.28 138.63 128.34 100.73"/><rect class="cls-1" x="270.72" y="81.83" width="12.59" height="50.49" transform="translate(169.94 384.09) rotate(-90)"/><rect class="cls-1" x="270.72" y="107.04" width="12.59" height="50.49" transform="translate(144.73 409.29) rotate(-90)"/><rect class="cls-2" x="212.8" y="80.52" width="12.59" height="53.1" transform="translate(112.02 326.17) rotate(-90)"/><rect class="cls-1" x="251.77" y="114.68" width="50.49" height="10"/><polygon class="cls-2" points="306.33 100.78 369.16 100.78 338.2 130.3 306.33 100.78"/><rect class="cls-4" x="251.77" y="100.78" width="19.12" height="37.85"/><polygon class="cls-4" points="161.29 55.79 137.99 27.89 184.58 27.89 161.29 55.79"/><polygon class="cls-4" points="207.87 55.79 184.58 27.89 231.16 27.89 207.87 55.79"/></g></g></g></g></svg>